<?xml version="1.0" standalone="no"?>
<!DOCTYPE svg PUBLIC "-//W3C//DTD SVG 20010904//EN"
 "http://www.w3.org/TR/2001/REC-SVG-20010904/DTD/svg10.dtd">
<svg version="1.0" xmlns="http://www.w3.org/2000/svg"
 width="512.000000pt" height="512.000000pt" viewBox="0 0 512.000000 512.000000"
 preserveAspectRatio="xMidYMid meet">
<metadata>
Created by potrace 1.11, written by Peter Selinger 2001-2013
</metadata>
<g transform="translate(0.000000,512.000000) scale(0.100000,-0.100000)"
fill="#000000" stroke="none">
<path d="M2490 4994 c-25 -7 -62 -28 -83 -45 -39 -32 -86 -125 -555 -1079 -63
-129 -126 -250 -140 -268 -30 -40 -94 -78 -142 -86 -71 -12 -181 -28 -280 -42
-19 -2 -48 -7 -65 -9 -16 -3 -43 -7 -60 -10 -16 -2 -66 -9 -110 -15 -90 -12
-128 -18 -165 -25 -14 -3 -47 -7 -75 -10 -27 -4 -90 -13 -140 -20 -49 -8 -170
-26 -268 -40 -268 -38 -293 -46 -354 -115 -53 -60 -65 -179 -26 -255 13 -24
134 -150 303 -314 154 -151 335 -326 400 -390 394 -384 391 -381 393 -480 0
-31 -3 -72 -7 -91 -4 -19 -9 -48 -12 -65 -2 -16 -9 -57 -15 -90 -6 -33 -13
-69 -15 -80 -7 -41 -35 -211 -39 -235 -2 -14 -15 -92 -30 -175 -29 -168 -34
-199 -40 -235 -2 -14 -18 -104 -35 -200 -42 -233 -47 -299 -26 -353 34 -90
141 -158 239 -151 45 3 164 59 412 194 28 15 127 67 220 116 94 49 196 102
227 119 477 253 493 260 557 260 70 -1 56 6 616 -289 72 -38 166 -88 210 -111
396 -210 515 -270 550 -280 35 -11 73 -11 125 -2 58 11 142 92 159 154 16 55
14 88 -14 257 -14 83 -28 162 -30 176 -2 14 -23 131 -45 260 -23 129 -43 249
-46 265 -5 32 -22 127 -28 160 -2 11 -7 40 -10 65 -3 25 -8 56 -11 70 -5 24
-10 51 -21 115 -3 17 -8 44 -11 60 -11 65 -5 142 15 181 19 37 103 123 372
385 550 534 684 668 702 704 47 90 28 202 -45 274 -42 42 -94 64 -182 75 -22
3 -134 19 -250 36 -260 38 -264 39 -349 51 -38 5 -78 11 -90 14 -12 2 -43 7
-71 10 -27 3 -57 8 -65 10 -8 2 -41 6 -73 10 -32 3 -94 12 -139 20 -45 8 -83
13 -85 11 -3 -2 -19 0 -36 4 -18 5 -57 12 -87 15 -30 3 -76 13 -103 21 -85 28
-113 66 -245 334 -390 797 -512 1038 -536 1067 -54 65 -158 93 -246 67z"/>
</g>
</svg>
